# xmcd CD database file
#
# Track frame offsets:
#	150
#	15912
#	29987
#	41234
#	55969
#	71703
#	82687
#	92518
#	106706
#	119882
#
# Disc length: 1762 seconds
#
# Revision: 0
# Processed by: cddbd v1.5.2PL0 Copyright (c) Steve Scherf et al.
# Submitted via: CDex 1.70beta2
#
DISCID=8006e00a
DTITLE=B.B. KING - The Soul Of B.B. King
DYEAR=1970
DGENRE=Blues
TTITLE0=Going Home
TTITLE1=The Letter
TTITLE2=You Never Know
TTITLE3=Please Remember Me
TTITLE4=Come Back Baby
TTITLE5=You Won't Listen
TTITLE6=Sundown
TTITLE7=You Shouldn't Have Left
TTITLE8=Early In The Morning 
TTITLE9=I Gotta Find My Baby 
EXTD=YEAR: 1970
EXTT0=
EXTT1=
EXTT2=
EXTT3=
EXTT4=
EXTT5=
EXTT6=
EXTT7=
EXTT8=
EXTT9=
PLAYORDER=
